<?xml version="1.0" encoding="utf-8"?>
<!-- Generator: Adobe Illustrator 21.0.0, SVG Export Plug-In . SVG Version: 6.00 Build 0)  -->
<svg version="1.1" xmlns="http://www.w3.org/2000/svg" xmlns:xlink="http://www.w3.org/1999/xlink" x="0px" y="0px"
	 viewBox="0 0 792 612" style="enable-background:new 0 0 792 612;" xml:space="preserve">
<style type="text/css">
	.st0{fill:url(#SVGID_1_);}
	.st1{opacity:0.59;}
	.st2{fill:#F1F2F2;}
	.st3{fill:url(#SVGID_2_);}
	.st4{opacity:0.68;fill:url(#SVGID_3_);}
	.st5{opacity:0.82;fill:url(#SVGID_4_);}
	.st6{opacity:0.92;fill:url(#SVGID_5_);}
	.st7{opacity:0.79;fill:url(#SVGID_6_);}
	.st8{opacity:0.79;fill:url(#SVGID_7_);}
	.st9{opacity:0.79;fill:url(#SVGID_8_);}
	.st10{opacity:0.79;fill:url(#SVGID_9_);}
	.st11{fill:url(#SVGID_10_);}
	.st12{fill:url(#SVGID_11_);}
	.st13{fill:url(#SVGID_12_);}
	.st14{fill:url(#SVGID_13_);}
	.st15{fill:url(#SVGID_14_);}
	.st16{fill:url(#SVGID_15_);}
	.st17{fill:url(#SVGID_16_);}
	.st18{opacity:0.68;fill:url(#SVGID_17_);}
	.st19{opacity:0.82;fill:url(#SVGID_18_);}
	.st20{opacity:0.92;fill:url(#SVGID_19_);}
	.st21{opacity:0.79;fill:url(#SVGID_20_);}
	.st22{opacity:0.79;fill:url(#SVGID_21_);}
	.st23{opacity:0.79;fill:url(#SVGID_22_);}
	.st24{opacity:0.79;fill:url(#SVGID_23_);}
	.st25{fill:url(#SVGID_24_);}
	.st26{fill:url(#SVGID_25_);}
	.st27{fill:url(#SVGID_26_);}
	.st28{fill:url(#SVGID_27_);}
	.st29{fill:url(#SVGID_28_);}
	.st30{fill:url(#SVGID_29_);}
	.st31{fill:url(#SVGID_30_);}
	.st32{opacity:0.68;fill:url(#SVGID_31_);}
	.st33{opacity:0.82;fill:url(#SVGID_32_);}
	.st34{opacity:0.92;fill:url(#SVGID_33_);}
	.st35{opacity:0.79;fill:url(#SVGID_34_);}
	.st36{opacity:0.79;fill:url(#SVGID_35_);}
	.st37{opacity:0.79;fill:url(#SVGID_36_);}
	.st38{opacity:0.79;fill:url(#SVGID_37_);}
	.st39{fill:url(#SVGID_38_);}
	.st40{fill:url(#SVGID_39_);}
	.st41{fill:url(#SVGID_40_);}
	.st42{fill:url(#SVGID_41_);}
	.st43{fill:url(#SVGID_42_);}
	.st44{fill:url(#SVGID_43_);}
	.st45{fill:url(#SVGID_44_);}
	.st46{opacity:0.68;fill:url(#SVGID_45_);}
	.st47{opacity:0.82;fill:url(#SVGID_46_);}
	.st48{opacity:0.92;fill:url(#SVGID_47_);}
	.st49{opacity:0.79;fill:url(#SVGID_48_);}
	.st50{opacity:0.79;fill:url(#SVGID_49_);}
	.st51{opacity:0.79;fill:url(#SVGID_50_);}
	.st52{opacity:0.79;fill:url(#SVGID_51_);}
	.st53{fill:url(#SVGID_52_);}
	.st54{fill:url(#SVGID_53_);}
	.st55{fill:url(#SVGID_54_);}
	.st56{fill:url(#SVGID_55_);}
	.st57{fill:url(#SVGID_56_);}
	.st58{fill:url(#SVGID_57_);}
	.st59{fill:url(#SVGID_58_);}
	.st60{opacity:0.68;fill:url(#SVGID_59_);}
	.st61{opacity:0.82;fill:url(#SVGID_60_);}
	.st62{opacity:0.92;fill:url(#SVGID_61_);}
	.st63{opacity:0.79;fill:url(#SVGID_62_);}
	.st64{opacity:0.79;fill:url(#SVGID_63_);}
	.st65{opacity:0.79;fill:url(#SVGID_64_);}
	.st66{opacity:0.79;fill:url(#SVGID_65_);}
	.st67{fill:url(#SVGID_66_);}
	.st68{fill:url(#SVGID_67_);}
	.st69{fill:url(#SVGID_68_);}
	.st70{fill:url(#SVGID_69_);}
	.st71{fill:url(#SVGID_70_);}
</style>
<g id="Layer_1">
</g>
<g id="Layer_2">
	<g>
		<linearGradient id="SVGID_1_" gradientUnits="userSpaceOnUse" x1="396.0002" y1="-2.731323e-02" x2="396.0002" y2="455.9727">
			<stop  offset="0" style="stop-color:#71CDE1"/>
			<stop  offset="0.9949" style="stop-color:#F4F3B4"/>
		</linearGradient>
		<rect x="0" y="0" class="st0" width="792" height="456"/>
		<radialGradient id="SVGID_2_" cx="421.2916" cy="280.6804" r="55.7077" gradientUnits="userSpaceOnUse">
			<stop  offset="1.025641e-02" style="stop-color:#F4F3B0"/>
			<stop  offset="1" style="stop-color:#F9ED32"/>
		</radialGradient>
		<circle class="st3" cx="421.3" cy="280.7" r="55.7"/>
		<linearGradient id="SVGID_3_" gradientUnits="userSpaceOnUse" x1="217.1967" y1="110.8767" x2="217.1967" y2="263.0033">
			<stop  offset="0" style="stop-color:#FFFFFF"/>
			<stop  offset="0.9949" style="stop-color:#F4F3B4"/>
		</linearGradient>
		<path class="st4" d="M77,253c-16.7-3.9-27.4-20.3-24.2-36.8c3.2-16.9,20-28.4,37.2-25.2c-1-10.9,6.4-20.8,17-23
			c10.5-2.2,21.1,3.8,24.6,14c-0.6-3-3.3-18.2,6.4-33c9.4-14.5,23.9-18.3,27-19c1.9-10.3,10.2-18.1,20-19c11.2-1.1,22.1,7,24.4,19
			c16.3-5.9,34.3-0.9,44.6,12c8.7,11,10.5,26.1,5,39.5c6.7-11,19.5-16.8,32-14.5c12.9,2.4,23.1,12.9,25,26c0.6-0.3,14-7.6,27,0
			c9.2,5.4,14.4,16.1,13,27c4.9-6.7,13.2-8.9,19-6c5.9,3,8.4,12.3,6.6,18.8C374.4,258,298,261,298,261l0,0c0,0-48.4,2.3-99,2
			c-47.8-0.3-71.7-2.8-82-4C100.5,257.1,86.7,254.8,77,253z"/>
		<linearGradient id="SVGID_4_" gradientUnits="userSpaceOnUse" x1="663.5807" y1="29.8767" x2="663.5807" y2="105.94">
			<stop  offset="0" style="stop-color:#FFFFFF"/>
			<stop  offset="0.9949" style="stop-color:#F4F3B4"/>
		</linearGradient>
		<path class="st5" d="M572.2,100.9c-10.9-1.9-17.8-10.2-15.8-18.4c2.1-8.5,13-14.2,24.3-12.6c-0.6-5.4,4.2-10.4,11.1-11.5
			c6.8-1.1,13.8,1.9,16.1,7c-0.4-1.5-2.1-9.1,4.1-16.5c6.1-7.2,15.6-9.1,17.6-9.5c1.2-5.2,6.7-9,13-9.5c7.3-0.5,14.4,3.5,15.9,9.5
			c10.6-2.9,22.4-0.5,29.1,6c5.7,5.5,6.9,13.1,3.3,19.7c4.3-5.5,12.7-8.4,20.9-7.2c8.4,1.2,15,6.4,16.3,13c0.4-0.2,9.1-3.8,17.6,0
			c6,2.7,9.4,8,8.5,13.5c3.2-3.4,8.6-4.5,12.4-3c3.9,1.5,5.5,6.1,4.3,9.4c-4.7,12.6-54.5,14.1-54.5,14.1l0,0c0,0-31.6,1.2-64.6,1
			c-31.2-0.2-46.8-1.4-53.5-2C587.5,103,578.5,101.8,572.2,100.9z"/>
		
			<linearGradient id="SVGID_5_" gradientUnits="userSpaceOnUse" x1="-1324.2498" y1="55.8767" x2="-1324.2498" y2="121.9727" gradientTransform="matrix(-1.1403 0 0 1 -954.0957 0)">
			<stop  offset="0" style="stop-color:#FFFFFF"/>
			<stop  offset="0.9949" style="stop-color:#F4F3B4"/>
		</linearGradient>
		<path class="st6" d="M618.6,117.6c7.4-1.7,12.2-8.8,10.8-16c-1.4-7.4-8.9-12.3-16.6-10.9c0.4-4.7-2.9-9-7.6-10
			c-4.7-0.9-9.4,1.7-11,6.1c0.3-1.3,1.5-7.9-2.8-14.3c-4.2-6.3-10.7-7.9-12-8.3c-0.8-4.5-4.6-7.8-8.9-8.3c-5-0.5-9.9,3.1-10.9,8.3
			c-7.3-2.6-15.3-0.4-19.9,5.2c-3.9,4.8-4.7,11.4-2.2,17.2c-3-4.8-8.7-7.3-14.3-6.3c-5.8,1-10.3,5.6-11.2,11.3
			c-0.3-0.1-6.2-3.3-12,0c-4.1,2.3-6.4,7-5.8,11.7c-2.2-2.9-5.9-3.9-8.5-2.6c-2.6,1.3-3.8,5.3-2.9,8.2c3.2,10.9,37.3,12.2,37.3,12.2
			l0,0c0,0,21.6,1,44.2,0.9c21.3-0.1,32-1.2,36.6-1.7C608.1,119.4,614.2,118.4,618.6,117.6z"/>
		<linearGradient id="SVGID_6_" gradientUnits="userSpaceOnUse" x1="248.4723" y1="327.5415" x2="248.4723" y2="383.5731">
			<stop  offset="0" style="stop-color:#FFFFFF"/>
			<stop  offset="0.9949" style="stop-color:#F4F3B4"/>
		</linearGradient>
		<path class="st7" d="M183.5,379.9c-7.7-1.4-12.7-7.5-11.2-13.6c1.5-6.2,9.3-10.5,17.3-9.3c-0.5-4,3-7.7,7.9-8.5
			c4.9-0.8,9.8,1.4,11.4,5.2c-0.3-1.1-1.5-6.7,2.9-12.2c4.4-5.3,11.1-6.7,12.5-7c0.9-3.8,4.7-6.7,9.3-7c5.2-0.4,10.2,2.6,11.3,7
			c7.6-2.2,15.9-0.3,20.7,4.4c4,4,4.9,9.6,2.3,14.5c3.1-4.1,9-6.2,14.8-5.3c6,0.9,10.7,4.7,11.6,9.6c0.3-0.1,6.5-2.8,12.5,0
			c4.3,2,6.7,5.9,6,9.9c2.3-2.5,6.1-3.3,8.8-2.2c2.7,1.1,3.9,4.5,3,6.9c-3.3,9.3-38.7,10.4-38.7,10.4l0,0c0,0-22.5,0.9-45.9,0.7
			c-22.2-0.1-33.3-1-38-1.5C194.4,381.4,188,380.5,183.5,379.9z"/>
		<linearGradient id="SVGID_7_" gradientUnits="userSpaceOnUse" x1="77.0001" y1="299.9009" x2="77.0001" y2="355.9326">
			<stop  offset="0" style="stop-color:#FFFFFF"/>
			<stop  offset="0.9949" style="stop-color:#F4F3B4"/>
		</linearGradient>
		<path class="st8" d="M12,352.2c-7.7-1.4-12.7-7.5-11.2-13.6c1.5-6.2,9.3-10.5,17.3-9.3c-0.5-4,3-7.7,7.9-8.5
			c4.9-0.8,9.8,1.4,11.4,5.2c-0.3-1.1-1.5-6.7,2.9-12.2c4.4-5.3,11.1-6.7,12.5-7c0.9-3.8,4.7-6.7,9.3-7c5.2-0.4,10.2,2.6,11.3,7
			c7.6-2.2,15.9-0.3,20.7,4.4c4,4,4.9,9.6,2.3,14.5c3.1-4.1,9-6.2,14.8-5.3c6,0.9,10.7,4.7,11.6,9.6c0.3-0.1,6.5-2.8,12.5,0
			c4.3,2,6.7,5.9,6,9.9c2.3-2.5,6.1-3.3,8.8-2.2c2.7,1.1,3.9,4.5,3,6.9c-3.3,9.3-38.7,10.4-38.7,10.4l0,0c0,0-22.5,0.9-45.9,0.7
			c-22.2-0.1-33.3-1-38-1.5C22.9,353.7,16.5,352.9,12,352.2z"/>
		<linearGradient id="SVGID_8_" gradientUnits="userSpaceOnUse" x1="598.528" y1="288.941" x2="598.528" y2="344.9727">
			<stop  offset="0" style="stop-color:#FFFFFF"/>
			<stop  offset="0.9949" style="stop-color:#F4F3B4"/>
		</linearGradient>
		<path class="st9" d="M533.5,341.3c-7.7-1.4-12.7-7.5-11.2-13.6c1.5-6.2,9.3-10.5,17.3-9.3c-0.5-4,3-7.7,7.9-8.5
			c4.9-0.8,9.8,1.4,11.4,5.2c-0.3-1.1-1.5-6.7,2.9-12.2c4.4-5.3,11.1-6.7,12.5-7c0.9-3.8,4.7-6.7,9.3-7c5.2-0.4,10.2,2.6,11.3,7
			c7.6-2.2,15.9-0.3,20.7,4.4c4,4,4.9,9.6,2.3,14.5c3.1-4.1,9-6.2,14.8-5.3c6,0.9,10.7,4.7,11.6,9.6c0.3-0.1,6.5-2.8,12.5,0
			c4.3,2,6.7,5.9,6,9.9c2.3-2.5,6.1-3.3,8.8-2.2c2.7,1.1,3.9,4.5,3,6.9c-3.3,9.3-38.7,10.4-38.7,10.4l0,0c0,0-22.5,0.9-45.9,0.7
			c-22.2-0.1-33.3-1-38-1.5C544.4,342.8,538.1,341.9,533.5,341.3z"/>
		<linearGradient id="SVGID_9_" gradientUnits="userSpaceOnUse" x1="532.9398" y1="293.2972" x2="532.9398" y2="369.3606">
			<stop  offset="0" style="stop-color:#FFFFFF"/>
			<stop  offset="0.9949" style="stop-color:#F4F3B4"/>
		</linearGradient>
		<path class="st10" d="M437,364.3c-11.4-1.9-18.7-10.2-16.6-18.4c2.2-8.5,13.7-14.2,25.5-12.6c-0.7-5.4,4.4-10.4,11.6-11.5
			c7.2-1.1,14.4,1.9,16.9,7c-0.4-1.5-2.2-9.1,4.4-16.5c6.4-7.2,16.4-9.1,18.5-9.5c1.3-5.2,7-9,13.7-9.5c7.7-0.5,15.1,3.5,16.7,9.5
			c11.2-2.9,23.5-0.5,30.5,6c5.9,5.5,7.2,13.1,3.4,19.8c4.6-5.5,13.3-8.4,21.9-7.2c8.9,1.2,15.8,6.4,17.1,13c0.4-0.2,9.6-3.8,18.5,0
			c6.3,2.7,9.8,8,8.9,13.5c3.4-3.4,9.1-4.5,13-3c4.1,1.5,5.8,6.1,4.5,9.4c-4.9,12.6-57.1,14.1-57.2,14.1l0,0c0,0-33.1,1.2-67.7,1
			c-32.7-0.2-49.1-1.4-56.1-2C453.1,366.4,443.7,365.2,437,364.3z"/>
		
			<linearGradient id="SVGID_10_" gradientUnits="userSpaceOnUse" x1="-1296.1439" y1="287.9726" x2="-1296.1439" y2="488.3471" gradientTransform="matrix(-1 0 0 1 -900.1432 0)">
			<stop  offset="5.108173e-03" style="stop-color:#97BF9D"/>
			<stop  offset="1" style="stop-color:#009EDD"/>
		</linearGradient>
		<path class="st11" d="M792,379.6c-3.6-4.3-7.2-8.5-10.7-12.8c0.1,1,1,12.2-5.1,20.1c-5.5,7.1-12.4,5.9-13.4,5.7
			c-2.1,0.2-14.7,1.3-23.7-11.5c-3.5-5-5.3-10.5-6.2-14.3c-5.5,4.3-11,8.6-16.5,12.9c-14.4-18.8-33.5-40.3-57.6-60.2
			c-16.6-13.6-32.3-23.8-46.3-31.5c-5,12.7-18.5,42.4-45.2,63c-25.4,19.6-49.2,20.5-59.6,20.1c-3.1-1.1-9.1-3.9-14.4-11.5
			c-2.5-3.5-4.1-7.1-5.1-10c-8.4,12.9-22.1,31-42.2,45.8c-24,17.8-75.9,27.1-82.3,20.1c-8.6-9.6-8.3-24.2-8.2-25.8
			c-8.2,10-16.5,20.1-24.7,30.1c-11.7-13.1-27.4-28.2-47.3-41.5c-18-12.1-34.7-19.6-48.3-24.3c-11.8,12.5-48.1,48.7-91.5,55.9
			c-19.7,3.3-42.1,10.5-52.4-7.2c-8.1-13.7-5-34.9-3.1-44.4c-15.9,11.6-33,26.1-50.4,44.4c-5.4,5.7-10.6,11.5-15.4,17.2
			c-5.9-1.8-22-12.7-22-12.7L0,488.3c0,0,525.6-2.8,792-4.2"/>
		<linearGradient id="SVGID_11_" gradientUnits="userSpaceOnUse" x1="395.9999" y1="326.9727" x2="395.9999" y2="466.9611">
			<stop  offset="0" style="stop-color:#BCDDA3"/>
			<stop  offset="1" style="stop-color:#6CB49E"/>
		</linearGradient>
		<path class="st12" d="M0,392.3c4-3.4,8-6.9,12.1-10.3c-0.1,0.7-1,8.5,5,14c5.4,4.9,12.1,4.1,13,4c2.1,0.2,14.3,0.9,23-8
			c3.4-3.5,5.1-7.3,6-10c5.3,3,10.7,6,16,9c14-13.2,32.6-28.2,56-42c16.1-9.5,31.4-16.6,45-22c4.9,8.9,18,29.6,44,44
			c24.7,13.7,47.8,14.3,58,14c3-0.8,8.9-2.7,14-8c2.4-2.5,4-5,5-7c8.1,9,21.5,21.6,41,32c23.3,12.4,73.8,19,80,14
			c8.3-6.7,8-16.9,8-18c8,7,16,14,24,21c11.4-9.1,26.7-19.7,46-29c17.5-8.5,33.7-13.7,47-17c11.5,8.7,46.8,34,89,39
			c19.2,2.3,40.9,7.4,51-5c7.8-9.6,4.8-24.3,3-31c15.5,8.1,32.1,18.2,49,31c5.3,4,10.3,8,15,12c5.8-1.3,13.5-3.7,21.4-8.9
			c8.4-5.5,20.5-10.2,20.6-10.4c0-0.2,0,67.3,0,67.3L0,464"/>
		<linearGradient id="SVGID_12_" gradientUnits="userSpaceOnUse" x1="395.9998" y1="392.8302" x2="395.9998" y2="555.3519">
			<stop  offset="0" style="stop-color:#FFF33B"/>
			<stop  offset="5.035165e-02" style="stop-color:#E8E637"/>
			<stop  offset="0.1053" style="stop-color:#D0DD35"/>
			<stop  offset="0.1616" style="stop-color:#BED734"/>
			<stop  offset="0.2194" style="stop-color:#B4D335"/>
			<stop  offset="0.2809" style="stop-color:#B0D235"/>
			<stop  offset="1" style="stop-color:#5B8828"/>
		</linearGradient>
		<path class="st13" d="M0.5,417.9c19.2-8.6,43.3-17,71.5-21.6c80.5-13.2,135.5,14,225,35.7c42.3,10.2,100.2,15.8,216,27
			c123,11.9,279,20.6,279,20.6l0,38.4c0,0-779.3,34.2-792,37.4C0.5,417.9,0,555.4,0.5,417.9z"/>
		<linearGradient id="SVGID_13_" gradientUnits="userSpaceOnUse" x1="396.2641" y1="445.8557" x2="396.2641" y2="578.5806">
			<stop  offset="0" style="stop-color:#FFF33B"/>
			<stop  offset="5.035165e-02" style="stop-color:#E8E637"/>
			<stop  offset="0.1053" style="stop-color:#D0DD35"/>
			<stop  offset="0.1616" style="stop-color:#BED734"/>
			<stop  offset="0.2194" style="stop-color:#B4D335"/>
			<stop  offset="0.2809" style="stop-color:#B0D235"/>
			<stop  offset="1" style="stop-color:#5B8828"/>
		</linearGradient>
		<path class="st14" d="M0.5,452.9c69.9,20.9,191.2,53.6,334,24.1c15.1-3.1,9.9-2.6,37-9C503,436.8,792,447.7,792,447.7
			s0,96.5,0,95.8c0-0.7-537.3,103.9-790.3-44.6c-1.6-33.2-0.2-3.2-1-39.9C0.6,457.1,0.6,455.1,0.5,452.9z"/>
		<linearGradient id="SVGID_14_" gradientUnits="userSpaceOnUse" x1="396.4997" y1="500.6764" x2="396.4997" y2="612.0273">
			<stop  offset="0" style="stop-color:#FFF33B"/>
			<stop  offset="5.035165e-02" style="stop-color:#E8E637"/>
			<stop  offset="0.1053" style="stop-color:#D0DD35"/>
			<stop  offset="0.1616" style="stop-color:#BED734"/>
			<stop  offset="0.2194" style="stop-color:#B4D335"/>
			<stop  offset="0.2809" style="stop-color:#B0D235"/>
			<stop  offset="1" style="stop-color:#5B8828"/>
		</linearGradient>
		<path class="st15" d="M792,500.7c-116.6,14-248.1,23.5-392.2,23.6c-146.7,0.1-280.5-9.4-398.8-23.6c0,37.1,0,74.2,0,111.4h791
			V500.7z"/>
	</g>
</g>
<g id="Layer_4">
</g>
<g id="Layer_3">
	<g id="Layer_5">
	</g>
</g>
<g id="Layer_6">
</g>
</svg>
