<?xml version="1.0" encoding="UTF-8" standalone="no"?>
<svg viewBox="0 0 1124.2058 753.22852" xmlns="http://www.w3.org/2000/svg">
<defs>
<radialGradient cx="175.42734" cy="149.13286" gradientTransform="matrix(1,-7.253691e-7,8.6771e-7,.94611,-31.89612,4.89745)" gradientUnits="userSpaceOnUse" id="radialGradient20887" r="65.53997">
<stop offset="0" stop-color="#333"/>
<stop offset="1" stop-color="#222" stop-opacity="0"/>
</radialGradient>
</defs>
<g transform="translate(31.89639,3.13964)">
<path d="m-5.49437-3.13964h1065.9075v620.07874h-1065.9075z" fill="#2c3d54"/>
<path d="m167.24684,398.01033c0,0 31.84058,54.02972 47.1567,69.54114s17.65123,13.65238 5.61713-4.07496-52.77383-65.46618-52.77383-65.46618z" fill="#00005b" fill-rule="evenodd"/>
<path d="m155.4732,226.11509c0,0 31.84058,54.02972 47.1567,69.54114s17.65123,13.65238 5.61713-4.07496-52.77383-65.46618-52.77383-65.46618z" fill="#00005b" fill-rule="evenodd"/>
<path d="m-11.07645,556.98455c-.15688.06447 146.63246-92.04053 265.3425-92.40975 103.60578-.32224 184.99641,49.73941 241.79141,99.76052-.26169-1.22512 71.18508-47.39098 192.33406-54.08069 236.8992-13.08132 397.22868,126.53834 397.22868,126.53834l6.2803,112.36185-1123.38792.52505 20.41096-192.69532z" fill="#2c542c" fill-rule="evenodd" stroke="#000" stroke-width=".81795"/>
<path d="m493.27109,561.90361c50.23191,42.06289 82.95813,77.21126 113.0662,139.00601" fill="#2c542c" fill-rule="evenodd" stroke="#000" stroke-width=".81795"/>
<path d="m240.96731,149.13286a65.53997,62.00787 0 1,1 -131.07994,0 65.53997,62.00787 0 1,1 131.07994,0z" fill="url(#radialGradient20887)"/>
<path d="m240.96731,149.13286a65.53997,62.00787 0 1,1 -131.07994,0 65.53997,62.00787 0 1,1 131.07994,0z" fill="url(#radialGradient20887)" transform="translate(27.47184,-29.82657)"/>
<path d="m240.96731,149.13286a65.53997,62.00787 0 1,1 -131.07994,0 65.53997,62.00787 0 1,1 131.07994,0z" fill="url(#radialGradient20887)" transform="translate(46.30967,22.76239)"/>
<path d="m240.96731,149.13286a65.53997,62.00787 0 1,1 -131.07994,0 65.53997,62.00787 0 1,1 131.07994,0z" fill="url(#radialGradient20887)" transform="translate(72.9966,-44.73985)"/>
<path d="m240.96731,149.13286a65.53997,62.00787 0 1,1 -131.07994,0 65.53997,62.00787 0 1,1 131.07994,0z" fill="url(#radialGradient20887)" transform="translate(117.7365,18.05293)"/>
<path d="m240.96731,149.13286a65.53997,62.00787 0 1,1 -131.07994,0 65.53997,62.00787 0 1,1 131.07994,0z" fill="url(#radialGradient20887)" transform="translate(142.8536,-54.94368)"/>
<path d="m240.96731,149.13286a65.53997,62.00787 0 1,1 -131.07994,0 65.53997,62.00787 0 1,1 131.07994,0z" fill="url(#radialGradient20887)" transform="translate(175.8198,63.5777)"/>
<path d="m240.96731,149.13286a65.53997,62.00787 0 1,1 -131.07994,0 65.53997,62.00787 0 1,1 131.07994,0z" fill="url(#radialGradient20887)" transform="translate(189.9482,-17.26801)"/>
<path d="m240.96731,149.13286a65.53997,62.00787 0 1,1 -131.07994,0 65.53997,62.00787 0 1,1 131.07994,0z" fill="url(#radialGradient20887)" transform="translate(-18.05289,60.43806)"/>
<path d="m240.96731,149.13286a65.53997,62.00787 0 1,1 -131.07994,0 65.53997,62.00787 0 1,1 131.07994,0z" fill="url(#radialGradient20887)" transform="translate(-86.34004,14.12838)"/>
<path d="m240.96731,149.13286a65.53997,62.00787 0 1,1 -131.07994,0 65.53997,62.00787 0 1,1 131.07994,0z" fill="url(#radialGradient20887)" transform="translate(-48.66437,-62.00787)"/>
<path d="m240.96731,149.13286a65.53997,62.00787 0 1,1 -131.07994,0 65.53997,62.00787 0 1,1 131.07994,0z" fill="url(#radialGradient20887)" transform="translate(485.0743,136.5743)"/>
<path d="m240.96731,149.13286a65.53997,62.00787 0 1,1 -131.07994,0 65.53997,62.00787 0 1,1 131.07994,0z" fill="url(#radialGradient20887)" transform="translate(556.5011,117.7365)"/>
<path d="m240.96731,149.13286a65.53997,62.00787 0 1,1 -131.07994,0 65.53997,62.00787 0 1,1 131.07994,0z" fill="url(#radialGradient20887)" transform="translate(611.4448,149.1329)"/>
<path d="m240.96731,149.13286a65.53997,62.00787 0 1,1 -131.07994,0 65.53997,62.00787 0 1,1 131.07994,0z" fill="url(#radialGradient20887)" transform="translate(614.5844,92.6194)"/>
<path d="m240.96731,149.13286a65.53997,62.00787 0 1,1 -131.07994,0 65.53997,62.00787 0 1,1 131.07994,0z" fill="url(#radialGradient20887)" transform="translate(532.1689,47.09463)"/>
<path d="m240.96731,149.13286a65.53997,62.00787 0 1,1 -131.07994,0 65.53997,62.00787 0 1,1 131.07994,0z" fill="url(#radialGradient20887)" transform="translate(587.1126,7.06423)"/>
<path d="m240.96731,149.13286a65.53997,62.00787 0 1,1 -131.07994,0 65.53997,62.00787 0 1,1 131.07994,0z" fill="url(#radialGradient20887)" transform="translate(697.7849,162.4764)"/>
<path d="m240.96731,149.13286a65.53997,62.00787 0 1,1 -131.07994,0 65.53997,62.00787 0 1,1 131.07994,0z" fill="url(#radialGradient20887)" transform="translate(678.1622,131.8649)"/>
<path d="m240.96731,149.13286a65.53997,62.00787 0 1,1 -131.07994,0 65.53997,62.00787 0 1,1 131.07994,0z" fill="url(#radialGradient20887)" transform="translate(782.5552,156.982)"/>
<path d="m240.96731,149.13286a65.53997,62.00787 0 1,1 -131.07994,0 65.53997,62.00787 0 1,1 131.07994,0z" fill="url(#radialGradient20887)" transform="translate(729.9662,91.04958)"/>
<path d="m240.96731,149.13286a65.53997,62.00787 0 1,1 -131.07994,0 65.53997,62.00787 0 1,1 131.07994,0z" fill="url(#radialGradient20887)" transform="translate(535.3085,-29.82653)"/>
<path d="m231.60945,253.58693c0,0 31.84058,54.02972 47.1567,69.54114s17.65123,13.65238 5.61713-4.07496-52.77383-65.46618-52.77383-65.46618z" fill="#00005b" fill-rule="evenodd"/>
<path d="m354.05538,295.18715c0,0 31.84058,54.02972 47.1567,69.54114s17.65123,13.65238 5.61713-4.07496-52.77383-65.46618-52.77383-65.46618z" fill="#00005b" fill-rule="evenodd"/>
<path d="m346.20628,343.85156c0,0 31.84058,54.02972 47.1567,69.54114s17.65123,13.65238 5.61713-4.07496-52.77383-65.46618-52.77383-65.46618z" fill="#00005b" fill-rule="evenodd"/>
<path d="m255.94165,323.44391c0,0 31.84058,54.02972 47.1567,69.54114s17.65123,13.65238 5.61713-4.07496-52.77383-65.46618-52.77383-65.46618z" fill="#00005b" fill-rule="evenodd"/>
<path d="m226.11508,361.90449c0,0 31.84058,54.02972 47.1567,69.54114s17.65123,13.65238 5.61713-4.07496-52.77383-65.46618-52.77383-65.46618z" fill="#00005b" fill-rule="evenodd"/>
<path d="m198.64324,303.03626c0,0 31.84058,54.02972 47.1567,69.54114s17.65123,13.65238 5.61713-4.07496-52.77383-65.46618-52.77383-65.46618z" fill="#00005b" fill-rule="evenodd"/>
<path d="m261.43602,250.4473c0,0 31.84058,54.02972 47.1567,69.54114s17.65123,13.65238 5.61713-4.07496-52.77383-65.46618-52.77383-65.46618z" fill="#00005b" fill-rule="evenodd"/>
<path d="m339.927,394.8707c0,0 31.84058,54.02972 47.1567,69.54114s17.65123,13.65238 5.61713-4.07496-52.77383-65.46618-52.77383-65.46618z" fill="#00005b" fill-rule="evenodd"/>
<path d="m426.26708,345.42138c0,0 31.84058,54.02972 47.1567,69.54114s17.65123,13.65238 5.61713-4.07496-52.77383-65.46618-52.77383-65.46618z" fill="#00005b" fill-rule="evenodd"/>
<path d="m452.95401,423.12745c0,0 31.84058,54.02972 47.1567,69.54114s17.65123,13.65238 5.61713-4.07496-52.77383-65.46618-52.77383-65.46618z" fill="#00005b" fill-rule="evenodd"/>
<path d="m409.78397,448.24456c0,0 31.84058,54.02972 47.1567,69.54114s17.65123,13.65238 5.61713-4.07496-52.77383-65.46618-52.77383-65.46618z" fill="#00005b" fill-rule="evenodd"/>
<path d="m218.26598,401.93488c0,0 31.84058,54.02972 47.1567,69.54114s17.65123,13.65238 5.61713-4.07496-52.77383-65.46618-52.77383-65.46618z" fill="#00005b" fill-rule="evenodd"/>
<path d="m138.99009,323.4439c0,0 31.84058,54.02972 47.1567,69.54114s17.65123,13.65238 5.61713-4.07496-52.77383-65.46618-52.77383-65.46618z" fill="#00005b" fill-rule="evenodd"/>
<path d="m130.35608,259.0813c0,0 31.84058,54.02972 47.1567,69.54114s17.65123,13.65238 5.61713-4.07496-52.77383-65.46618-52.77383-65.46618z" fill="#00005b" fill-rule="evenodd"/>
<path d="m291.26259,408.99907c0,0 31.84058,54.02972 47.1567,69.54114s17.65123,13.65238 5.61713-4.07496-52.77383-65.46618-52.77383-65.46618z" fill="#00005b" fill-rule="evenodd"/>
<path d="m439.61054,245.73783c0,0 31.84058,54.02972 47.1567,69.54114s17.65123,13.65238 5.61713-4.07496-52.77383-65.46618-52.77383-65.46618z" fill="#00005b" fill-rule="evenodd"/>
<path d="m445.10491,310.10043c0,0 31.84058,54.02972 47.1567,69.54114s17.65123,13.65238 5.61713-4.07496-52.77383-65.46618-52.77383-65.46618z" fill="#00005b" fill-rule="evenodd"/>
<path d="m396.4405,272.42476c0,0 31.84058,54.02972 47.1567,69.54114s17.65123,13.65238 5.61713-4.07496-52.77383-65.46618-52.77383-65.46618z" fill="#00005b" fill-rule="evenodd"/>
<path d="m503.18823,355.6252c0,0 31.84058,54.02972 47.1567,69.54114s17.65123,13.65238 5.61713-4.07496-52.77383-65.46618-52.77383-65.46618z" fill="#00005b" fill-rule="evenodd"/>
<path d="m504.75805,426.26708c0,0 31.84058,54.02972 47.1567,69.54114s17.65123,13.65238 5.61713-4.07496-52.77383-65.46618-52.77383-65.46618z" fill="#00005b" fill-rule="evenodd"/>
<path d="m472.57675,481.21077c0,0 31.84058,54.02972 47.1567,69.54114s17.65123,13.65238 5.61713-4.07496-52.77383-65.46618-52.77383-65.46618z" fill="#00005b" fill-rule="evenodd"/>
<path d="m298.32678,318.73444c0,0 31.84058,54.02972 47.1567,69.54114s17.65123,13.65238 5.61713-4.07496-52.77383-65.46618-52.77383-65.46618z" fill="#00005b" fill-rule="evenodd"/>
<path d="m823.37037,343.79049-18.05292,56.5135 23.54729,54.15878-22.76238,69.85697" fill="none" stroke="#fff" stroke-width="2.5"/>
<path d="m815.79064,366.52986 18.34409,56.41965 50.74051,30.21671 22.3125,70.00196" fill="none" stroke="#fff" stroke-width="2.5"/>
<path d="m807.0887,407.0667-41.62901,92.92328-33.10406-36.64096-34.67087,88.35438" fill="none" stroke="#fff" stroke-width="2.5"/>
<path d="m863.54741,439.74123-16.38238,27.58158 1.30607,34.97363-20.43652,34.00045" fill="none" stroke="#fff" stroke-width="1.28404"/>
<path d="m853.84598,456.22434 16.46599,27.58158-1.31274,34.97363 20.54081,34.00045" fill="none" stroke="#fff" stroke-width="1.28731"/>
</g>
</svg>
